<svg width="62" height="25" viewBox="0 0 62 25" fill="none" xmlns="http://www.w3.org/2000/svg">
<rect opacity="0.15" width="62" height="25" rx="12.5" fill="white"/>
<path d="M14.4074 17.126C13.754 17.126 13.18 17 12.6854 16.748C12.1907 16.4867 11.8034 16.1227 11.5234 15.656C11.2527 15.18 11.1174 14.634 11.1174 14.018V10.168C11.1174 9.56133 11.2527 9.02467 11.5234 8.558C11.8034 8.09133 12.1907 7.732 12.6854 7.48C13.18 7.21867 13.754 7.088 14.4074 7.088C15.0607 7.088 15.6347 7.214 16.1294 7.466C16.624 7.718 17.0067 8.07267 17.2774 8.53C17.5574 8.98733 17.6974 9.51467 17.6974 10.112C17.6974 10.1587 17.6834 10.196 17.6554 10.224C17.6274 10.252 17.5947 10.266 17.5574 10.266L16.8434 10.308C16.75 10.308 16.7034 10.266 16.7034 10.182V10.14C16.7034 9.47733 16.4934 8.95 16.0734 8.558C15.6534 8.15667 15.098 7.956 14.4074 7.956C13.7167 7.956 13.1614 8.15667 12.7414 8.558C12.3214 8.95933 12.1114 9.48667 12.1114 10.14V14.06C12.1114 14.7133 12.3214 15.2407 12.7414 15.642C13.1614 16.0433 13.7167 16.244 14.4074 16.244C15.098 16.244 15.6534 16.048 16.0734 15.656C16.4934 15.2547 16.7034 14.7227 16.7034 14.06V14.032C16.7034 13.948 16.75 13.906 16.8434 13.906L17.5574 13.948C17.6507 13.948 17.6974 13.99 17.6974 14.074C17.6974 14.6807 17.5574 15.2173 17.2774 15.684C17.0067 16.1413 16.624 16.496 16.1294 16.748C15.6347 17 15.0607 17.126 14.4074 17.126ZM20.0693 17C19.9759 17 19.9293 16.9533 19.9293 16.86V7.34C19.9293 7.24667 19.9759 7.2 20.0693 7.2H20.7833C20.8766 7.2 20.9233 7.24667 20.9233 7.34V16.076C20.9233 16.1133 20.9419 16.132 20.9793 16.132H25.9213C26.0146 16.132 26.0613 16.1787 26.0613 16.272V16.86C26.0613 16.9533 26.0146 17 25.9213 17H20.0693ZM30.8693 17.112C30.2066 17.112 29.6233 16.9767 29.1193 16.706C28.6153 16.4353 28.2233 16.0573 27.9433 15.572C27.6726 15.0773 27.5373 14.508 27.5373 13.864V10.336C27.5373 9.692 27.6726 9.12733 27.9433 8.642C28.2233 8.14733 28.6153 7.76467 29.1193 7.494C29.6233 7.22333 30.2066 7.088 30.8693 7.088C31.532 7.088 32.1153 7.22333 32.6193 7.494C33.1326 7.76467 33.5246 8.14733 33.7953 8.642C34.0753 9.12733 34.2153 9.692 34.2153 10.336V13.864C34.2153 14.508 34.0753 15.0773 33.7953 15.572C33.5246 16.0573 33.1326 16.4353 32.6193 16.706C32.1153 16.9767 31.532 17.112 30.8693 17.112ZM30.8693 16.258C31.5786 16.258 32.148 16.0433 32.5773 15.614C33.0066 15.1847 33.2213 14.6153 33.2213 13.906V10.322C33.2213 9.61267 33.0066 9.04333 32.5773 8.614C32.148 8.17533 31.5786 7.956 30.8693 7.956C30.1693 7.956 29.6046 8.17533 29.1753 8.614C28.746 9.04333 28.5313 9.61267 28.5313 10.322V13.906C28.5313 14.6153 28.746 15.1847 29.1753 15.614C29.6046 16.0433 30.1693 16.258 30.8693 16.258ZM39.3823 17.112C38.3276 17.112 37.4923 16.874 36.8763 16.398C36.2696 15.922 35.9663 15.2873 35.9663 14.494V14.06C35.9663 13.9667 36.0129 13.92 36.1063 13.92H36.7923C36.8856 13.92 36.9323 13.9667 36.9323 14.06V14.438C36.9323 14.9793 37.1563 15.418 37.6043 15.754C38.0523 16.0807 38.6729 16.244 39.4663 16.244C40.1849 16.244 40.7309 16.0947 41.1043 15.796C41.4776 15.488 41.6643 15.082 41.6643 14.578C41.6643 14.2513 41.5756 13.9713 41.3983 13.738C41.2303 13.5047 40.9643 13.2853 40.6003 13.08C40.2456 12.8747 39.7416 12.6367 39.0883 12.366C38.3883 12.086 37.8423 11.8433 37.4503 11.638C37.0676 11.4233 36.7549 11.1527 36.5123 10.826C36.2789 10.49 36.1623 10.07 36.1623 9.566C36.1623 8.782 36.4329 8.17533 36.9743 7.746C37.5249 7.30733 38.2763 7.088 39.2283 7.088C40.2643 7.088 41.0809 7.33067 41.6783 7.816C42.2756 8.30133 42.5743 8.94533 42.5743 9.748V10.056C42.5743 10.1493 42.5276 10.196 42.4343 10.196H41.7343C41.6409 10.196 41.5943 10.1493 41.5943 10.056V9.804C41.5943 9.26267 41.3796 8.81933 40.9503 8.474C40.5303 8.12867 39.9423 7.956 39.1863 7.956C38.5236 7.956 38.0149 8.09133 37.6603 8.362C37.3056 8.63267 37.1283 9.02467 37.1283 9.538C37.1283 9.874 37.2123 10.154 37.3803 10.378C37.5576 10.5927 37.8049 10.784 38.1223 10.952C38.4489 11.1107 38.9483 11.3207 39.6203 11.582C40.3016 11.862 40.8476 12.1233 41.2583 12.366C41.6783 12.6087 42.0143 12.9073 42.2663 13.262C42.5276 13.6073 42.6583 14.032 42.6583 14.536C42.6583 15.32 42.3689 15.9453 41.7903 16.412C41.2116 16.8787 40.4089 17.112 39.3823 17.112ZM51.0721 7.928C51.0721 8.02133 51.0254 8.068 50.9321 8.068H45.7801C45.7427 8.068 45.7241 8.08667 45.7241 8.124V11.582C45.7241 11.6193 45.7427 11.638 45.7801 11.638H49.3921C49.4854 11.638 49.5321 11.6847 49.5321 11.778V12.366C49.5321 12.4593 49.4854 12.506 49.3921 12.506H45.7801C45.7427 12.506 45.7241 12.5247 45.7241 12.562V16.076C45.7241 16.1133 45.7427 16.132 45.7801 16.132H50.9321C51.0254 16.132 51.0721 16.1787 51.0721 16.272V16.86C51.0721 16.9533 51.0254 17 50.9321 17H44.8701C44.7767 17 44.7301 16.9533 44.7301 16.86V7.34C44.7301 7.24667 44.7767 7.2 44.8701 7.2H50.9321C51.0254 7.2 51.0721 7.24667 51.0721 7.34V7.928Z" fill="white"/>
</svg>
