<svg width="14" height="14" viewBox="0 0 14 14" fill="none" xmlns="http://www.w3.org/2000/svg">
<path d="M6.22407 6.01633C6.23641 6.0419 6.25027 6.06682 6.26566 6.09048C6.31501 6.16641 6.43011 6.34064 6.56008 6.51907L4.42333 8.65581C4.16897 8.91017 4.16897 9.32248 4.42333 9.57671C4.55038 9.70389 4.71711 9.76748 4.88372 9.76748C5.05033 9.76748 5.21706 9.70389 5.34411 9.57684L6.52307 8.39789C6.55105 8.44902 6.57814 8.50052 6.60332 8.5505C6.72008 8.79685 6.77921 9.04523 6.77921 9.28903C6.77921 9.9552 6.39856 10.6911 5.67796 11.4179L5.61793 11.4699C5.59415 11.4905 5.57189 11.5128 5.55129 11.5365L5.49953 11.5963C4.77206 12.317 4.03632 12.6977 3.37053 12.6977C3.00336 12.6977 2.66379 12.5845 2.33388 12.352C2.32206 12.3416 2.30985 12.3314 2.29738 12.3217L2.23405 12.2733C2.13993 12.2012 2.04684 12.1193 1.95743 12.0299C1.51662 11.5897 1.30233 11.1316 1.30233 10.6295C1.30233 9.96321 1.6831 9.22735 2.40371 8.5004L2.46386 8.44838C2.48739 8.4279 2.50952 8.4059 2.52987 8.38237L2.58189 8.32234C3.15203 7.75729 3.70463 7.40627 4.22467 7.27897C4.57391 7.1935 4.78783 6.84096 4.70223 6.4916C4.61677 6.14237 4.26435 5.92845 3.91499 6.01392C3.15572 6.19985 2.39226 6.67169 1.64559 7.41683C1.63439 7.42802 1.62358 7.43947 1.61328 7.45142L1.57602 7.49441L1.53303 7.53167C1.52108 7.54197 1.5095 7.55278 1.49844 7.56385C0.518132 8.54567 0 9.60571 0 10.6295C0 11.483 0.348983 12.2643 1.03715 12.9514C1.16662 13.0808 1.30271 13.2003 1.44172 13.3069L1.4627 13.3229C1.48114 13.3402 1.50073 13.3565 1.5212 13.3715C2.08766 13.7886 2.70983 14 3.37053 14C4.3937 14 5.45374 13.4819 6.43608 12.5017C6.4474 12.4904 6.45821 12.4787 6.46864 12.4666L6.50552 12.424L6.54838 12.387C6.56034 12.3766 6.57204 12.3657 6.58323 12.3546C7.56341 11.3727 8.08154 10.3127 8.08154 9.28903C8.08154 8.84759 7.97865 8.40845 7.7758 7.98379C7.77415 7.98023 7.77249 7.97667 7.77071 7.97324C7.7248 7.88141 7.61301 7.6647 7.47553 7.44532L9.57667 5.34419C9.8309 5.08996 9.8309 4.67765 9.57667 4.42329C9.32231 4.16906 8.90999 4.16906 8.65576 4.42329L7.49448 5.58456C7.45569 5.52847 7.41741 5.47175 7.38192 5.41808C7.27484 5.18217 7.22066 4.94447 7.22066 4.71097C7.22066 4.0448 7.60144 3.30907 8.32191 2.58212L8.38207 2.5301C8.40585 2.5095 8.42811 2.48737 8.44858 2.46359L8.50022 2.40368C9.22782 1.68309 9.96368 1.30231 10.6293 1.30231C10.9965 1.30231 11.3362 1.4155 11.6661 1.64811C11.6779 1.65854 11.69 1.66859 11.7026 1.67826L11.7658 1.72671C11.8598 1.79882 11.9529 1.88072 12.0426 1.97013C12.4834 2.4103 12.6977 2.8684 12.6977 3.37063C12.6977 4.03679 12.3169 4.77265 11.5963 5.49961L11.5361 5.55175C11.5126 5.5721 11.4905 5.59423 11.4701 5.61775L11.4182 5.67766C10.859 6.23127 10.2902 6.57376 9.72725 6.69572C9.37585 6.77178 9.15252 7.11847 9.22871 7.46986C9.29471 7.77497 9.56459 7.98329 9.86448 7.98329C9.91014 7.98329 9.95643 7.97858 10.0029 7.96841C10.8192 7.79175 11.6104 7.32564 12.3545 6.58317C12.3657 6.57211 12.3764 6.56053 12.3868 6.54858L12.424 6.50559L12.4671 6.46833C12.4789 6.45803 12.4905 6.44722 12.5016 6.43615C13.4819 5.45446 14 4.39442 14 3.37063C14 2.51713 13.651 1.73587 12.9628 1.04872C12.8332 0.91925 12.6972 0.799702 12.5583 0.693253L12.5372 0.676974C12.5187 0.659805 12.4991 0.643653 12.4788 0.628646C11.9125 0.211499 11.2902 0 10.6295 0C9.60643 0 8.54638 0.518128 7.56392 1.49842C7.55273 1.50962 7.54179 1.52132 7.53136 1.5334L7.49448 1.57613L7.45149 1.61327C7.43953 1.62357 7.42796 1.63438 7.41677 1.64557C6.43659 2.62727 5.91846 3.68743 5.91846 4.71109C5.91846 5.15253 6.02122 5.59168 6.22407 6.01633Z" fill="white"/>
</svg>
