<svg width="128" height="128" viewBox="0 0 128 128" fill="none" xmlns="http://www.w3.org/2000/svg">
<circle cx="64" cy="64" r="64" fill="white" fill-opacity="0.1"/>
<g opacity="0.25">
<mask id="mask0" mask-type="alpha" maskUnits="userSpaceOnUse" x="0" y="0" width="128" height="128">
<circle cx="64" cy="64" r="64" fill="white"/>
</mask>
<g mask="url(#mask0)">
<path d="M108.768 71.4413C107.931 72.4837 108.433 73.9847 108.433 73.9847C108.433 73.9847 106.425 72.7755 106.174 70.2321C105.881 67.6887 107.638 66.8131 108.224 66.0625C108.182 66.0208 108.182 65.9375 108.14 65.8958C107.68 64.9368 107.178 63.9361 107.178 62.6435C107.178 61.7262 107.262 60.8506 107.345 59.9333C107.471 58.5156 107.596 57.0146 107.429 55.2217C107.345 54.3878 107.094 53.0118 106.718 51.5525C106.676 52.0111 106.634 52.2613 106.634 52.2613C106.634 52.2613 102.534 65.9792 102.744 67.647C102.869 68.6894 103.455 70.3155 104.04 71.8582C104.375 72.4837 104.124 72.1501 104.501 72.984C104.961 74.0681 105.379 75.0271 105.588 75.5274C105.923 76.3197 105.003 83.2411 105.003 83.2411L104.919 84.0334C104.668 86.4517 104.082 88.7867 104.291 90.788C104.668 93.0813 104.501 95.9166 103.036 95.9166C101.614 95.9166 101.028 96 98.7693 96C98.351 92.3725 101.656 91.9972 101.656 88.6616C101.656 87.3273 101.447 84.3669 101.447 84.3669L101.321 83.5747C101.321 83.5747 100.484 80.4892 99.5641 80.4058C99.1876 80.9896 97.8489 83.8249 97.8489 83.8249L97.4724 84.6588C97.4724 84.6588 95.0879 95.9583 93.038 95.9583C90.9881 95.9583 90.4861 95.9583 88.4781 95.9583C88.4781 91.0799 92.8707 94.7074 92.8288 86.8687C92.787 86.4517 92.787 85.7846 92.8707 84.9924L92.9543 84.2001C93.4145 80.4475 94.544 74.6518 93.1217 73.2759C92.9543 73.1091 91.0718 72.7755 91.03 72.7755C87.0139 72.8172 78.8562 75.2356 74.6728 75.7359C69.4017 76.3197 56.7677 72.442 56.7677 72.442L57.8972 80.9896C57.8972 80.9896 58.0227 82.8242 58.3574 84.9507L58.4829 85.7429C58.8176 87.6192 58.9013 88.87 59.5288 90.0375C60.1981 91.4135 60.5328 95.8332 58.9431 95.8332C57.3534 95.8332 56.8932 95.8332 53.8393 95.8332C53.8393 92.3308 58.7339 93.3315 54.8852 85.5344C54.9688 85.5344 54.2577 84.7005 54.2577 84.7005C54.2577 84.7005 51.7894 76.1946 50.4089 76.0695C49.7814 76.0278 48.5682 81.615 47.6478 83.95C47.5642 83.95 47.3132 84.7005 47.355 84.7005C46.602 87.0771 47.104 95.1661 44.0501 95.8749C43.5063 95.9583 41.4564 95.8749 39.783 95.8749C39.783 91.8721 44.9704 89.9124 44.3011 84.2835C43.7154 80.9062 44.8868 75.319 44.8868 75.319L44.3011 74.7769C44.3011 74.7769 41.0799 74.36 39.9922 73.1508C39.281 72.3586 36.7291 66.5629 36.7291 66.5629L36.3526 65.8124L32.5038 59.6414L31.7927 58.8492C31.7927 58.8492 31.5835 58.6407 31.4998 58.5156C27.0654 54.0959 25.9359 54.9298 20.7903 54.9298C15.6446 54.9298 16.6905 50.7186 18.4057 50.385C22.0453 48.3002 21.5851 43.5469 21.1249 42.6713C20.6648 41.8374 18.2802 40.7533 19.7862 38.877C21.1668 41.0452 21.9616 40.6282 21.9616 40.6282C21.9616 40.6282 23.5931 38.0431 25.643 37.7512C27.6929 37.4177 30.9978 39.5858 30.9978 39.5858C30.9978 39.5858 32.1692 38.6268 31.5417 36C33.6334 36.3336 32.6293 40.7116 32.6293 40.7116L37.524 41.6706L38.3606 41.7957C38.3606 41.7957 41.6237 42.0876 42.7951 41.9208C45.8908 41.4204 53.5883 41.3787 53.5883 41.3787L54.425 41.4621C54.425 41.4621 73.7524 40.8784 86.3864 40.8784H87.223C90.779 40.8784 94.0002 40.9618 96.5102 41.1286C101.656 41.5038 104.25 43.5886 105.505 45.8819C106.969 48.467 108.224 52.9284 108.391 55.0549C108.559 56.9729 108.433 58.5573 108.308 59.975C108.224 60.8923 108.14 61.7262 108.14 62.6018C108.14 63.6859 108.559 64.5198 109.019 65.3954C109.479 66.271 109.939 66.9798 109.981 68.1473C110.106 69.5233 109.604 70.3989 108.768 71.4413Z" fill="white"/>
</g>
</g>
</svg>
