<svg width="174" height="17" viewBox="0 0 174 17" fill="none" xmlns="http://www.w3.org/2000/svg">
<path d="M9.01 7.97C8.93667 8.014 8.93667 8.058 9.01 8.102C10.5647 8.762 11.342 9.98667 11.342 11.776C11.342 13.1253 10.8947 14.1667 10 14.9C9.10533 15.6333 7.93933 16 6.502 16H1.024C0.877333 16 0.804 15.9267 0.804 15.78V0.819999C0.804 0.673332 0.877333 0.599999 1.024 0.599999H6.326C7.85133 0.599999 9.032 0.951999 9.868 1.656C10.7187 2.34533 11.144 3.35733 11.144 4.692C11.144 6.276 10.4327 7.36867 9.01 7.97ZM3.004 2.426C2.94533 2.426 2.916 2.45533 2.916 2.514V7.156C2.916 7.21467 2.94533 7.244 3.004 7.244H6.326C7.17667 7.244 7.844 7.03133 8.328 6.606C8.82667 6.18067 9.076 5.60133 9.076 4.868C9.076 4.12 8.82667 3.526 8.328 3.086C7.844 2.646 7.17667 2.426 6.326 2.426H3.004ZM6.502 14.152C7.338 14.152 7.998 13.9247 8.482 13.47C8.98067 13.0007 9.23 12.37 9.23 11.578C9.23 10.786 8.98067 10.1627 8.482 9.708C7.98333 9.23867 7.30133 9.004 6.436 9.004H3.004C2.94533 9.004 2.916 9.03333 2.916 9.092V14.064C2.916 14.1227 2.94533 14.152 3.004 14.152H6.502ZM24.9825 2.206C24.9825 2.35267 24.9092 2.426 24.7625 2.426H16.9525C16.8938 2.426 16.8645 2.45533 16.8645 2.514V7.244C16.8645 7.30267 16.8938 7.332 16.9525 7.332H22.3205C22.4672 7.332 22.5405 7.40533 22.5405 7.552V8.938C22.5405 9.08467 22.4672 9.158 22.3205 9.158H16.9525C16.8938 9.158 16.8645 9.18733 16.8645 9.246V14.086C16.8645 14.1447 16.8938 14.174 16.9525 14.174H24.7625C24.9092 14.174 24.9825 14.2473 24.9825 14.394V15.78C24.9825 15.9267 24.9092 16 24.7625 16H14.9725C14.8258 16 14.7525 15.9267 14.7525 15.78V0.819999C14.7525 0.673332 14.8258 0.599999 14.9725 0.599999H24.7625C24.9092 0.599999 24.9825 0.673332 24.9825 0.819999V2.206ZM38.351 2.206C38.351 2.35267 38.2776 2.426 38.131 2.426H30.321C30.2623 2.426 30.233 2.45533 30.233 2.514V7.244C30.233 7.30267 30.2623 7.332 30.321 7.332H35.689C35.8356 7.332 35.909 7.40533 35.909 7.552V8.938C35.909 9.08467 35.8356 9.158 35.689 9.158H30.321C30.2623 9.158 30.233 9.18733 30.233 9.246V14.086C30.233 14.1447 30.2623 14.174 30.321 14.174H38.131C38.2776 14.174 38.351 14.2473 38.351 14.394V15.78C38.351 15.9267 38.2776 16 38.131 16H28.341C28.1943 16 28.121 15.9267 28.121 15.78V0.819999C28.121 0.673332 28.1943 0.599999 28.341 0.599999H38.131C38.2776 0.599999 38.351 0.673332 38.351 0.819999V2.206ZM51.6974 2.206C51.6974 2.35267 51.6241 2.426 51.4774 2.426H43.6894C43.6307 2.426 43.6014 2.45533 43.6014 2.514V7.244C43.6014 7.30267 43.6307 7.332 43.6894 7.332H49.0354C49.1821 7.332 49.2554 7.40533 49.2554 7.552V8.938C49.2554 9.08467 49.1821 9.158 49.0354 9.158H43.6894C43.6307 9.158 43.6014 9.18733 43.6014 9.246V15.78C43.6014 15.9267 43.5281 16 43.3814 16H41.7094C41.5627 16 41.4894 15.9267 41.4894 15.78V0.819999C41.4894 0.673332 41.5627 0.599999 41.7094 0.599999H51.4774C51.6241 0.599999 51.6974 0.673332 51.6974 0.819999V2.206ZM58.9931 16C58.8465 16 58.7731 15.9267 58.7731 15.78V0.819999C58.7731 0.673332 58.8465 0.599999 58.9931 0.599999H64.3171C65.8425 0.599999 67.0598 1.00333 67.9691 1.81C68.8785 2.602 69.3331 3.66533 69.3331 5V11.6C69.3331 12.9347 68.8785 14.0053 67.9691 14.812C67.0598 15.604 65.8425 16 64.3171 16H58.9931ZM60.8851 14.086C60.8851 14.1447 60.9145 14.174 60.9731 14.174H64.4051C65.2558 14.174 65.9305 13.9173 66.4291 13.404C66.9425 12.876 67.2065 12.172 67.2211 11.292V5.308C67.2211 4.428 66.9645 3.73133 66.4511 3.218C65.9525 2.69 65.2705 2.426 64.4051 2.426H60.9731C60.9145 2.426 60.8851 2.45533 60.8851 2.514V14.086ZM77.5658 16.198C76.4951 16.198 75.5491 15.978 74.7278 15.538C73.9064 15.098 73.2684 14.482 72.8138 13.69C72.3591 12.8833 72.1318 11.9593 72.1318 10.918V5.682C72.1318 4.64067 72.3591 3.724 72.8138 2.932C73.2684 2.14 73.9064 1.524 74.7278 1.084C75.5491 0.644 76.4951 0.424 77.5658 0.424C78.6511 0.424 79.6044 0.644 80.4258 1.084C81.2471 1.524 81.8851 2.14 82.3398 2.932C82.7944 3.724 83.0218 4.64067 83.0218 5.682V10.918C83.0218 11.9593 82.7944 12.8833 82.3398 13.69C81.8851 14.482 81.2471 15.098 80.4258 15.538C79.6044 15.978 78.6511 16.198 77.5658 16.198ZM77.5658 14.372C78.5631 14.372 79.3698 14.064 79.9858 13.448C80.6018 12.832 80.9098 12.018 80.9098 11.006V5.66C80.9098 4.63333 80.6018 3.812 79.9858 3.196C79.3698 2.56533 78.5631 2.25 77.5658 2.25C76.5684 2.25 75.7618 2.56533 75.1458 3.196C74.5444 3.812 74.2438 4.63333 74.2438 5.66V11.006C74.2438 12.018 74.5444 12.832 75.1458 13.448C75.7618 14.064 76.5684 14.372 77.5658 14.372ZM96.052 0.599999C96.1986 0.599999 96.272 0.673332 96.272 0.819999V2.228C96.272 2.37467 96.1986 2.448 96.052 2.448H91.828C91.7693 2.448 91.74 2.47733 91.74 2.536V15.78C91.74 15.9267 91.6666 16 91.52 16H89.848C89.7013 16 89.628 15.9267 89.628 15.78V2.536C89.628 2.47733 89.5986 2.448 89.54 2.448H85.514C85.3673 2.448 85.294 2.37467 85.294 2.228V0.819999C85.294 0.673332 85.3673 0.599999 85.514 0.599999H96.052ZM106.885 16C106.753 16 106.672 15.9413 106.643 15.824L102.507 0.842L102.485 0.775999C102.485 0.658666 102.558 0.599999 102.705 0.599999H104.487C104.619 0.599999 104.7 0.665999 104.729 0.797999L107.611 11.754C107.626 11.7833 107.64 11.798 107.655 11.798C107.684 11.798 107.706 11.7833 107.721 11.754L110.449 0.797999C110.478 0.665999 110.559 0.599999 110.691 0.599999H112.429C112.561 0.599999 112.642 0.665999 112.671 0.797999L115.553 11.776C115.568 11.8053 115.582 11.82 115.597 11.82C115.612 11.82 115.626 11.8053 115.641 11.776L118.545 0.797999C118.574 0.665999 118.655 0.599999 118.787 0.599999H120.459C120.532 0.599999 120.584 0.621999 120.613 0.665999C120.657 0.71 120.672 0.768667 120.657 0.842L116.675 15.802C116.646 15.934 116.565 16 116.433 16H114.739C114.607 16 114.526 15.934 114.497 15.802L111.615 4.45C111.6 4.406 111.586 4.384 111.571 4.384C111.556 4.384 111.542 4.406 111.527 4.45L108.733 15.802C108.718 15.934 108.638 16 108.491 16H106.885ZM127.709 16.198C126.639 16.198 125.693 15.978 124.871 15.538C124.05 15.098 123.412 14.482 122.957 13.69C122.503 12.8833 122.275 11.9593 122.275 10.918V5.682C122.275 4.64067 122.503 3.724 122.957 2.932C123.412 2.14 124.05 1.524 124.871 1.084C125.693 0.644 126.639 0.424 127.709 0.424C128.795 0.424 129.748 0.644 130.569 1.084C131.391 1.524 132.029 2.14 132.483 2.932C132.938 3.724 133.165 4.64067 133.165 5.682V10.918C133.165 11.9593 132.938 12.8833 132.483 13.69C132.029 14.482 131.391 15.098 130.569 15.538C129.748 15.978 128.795 16.198 127.709 16.198ZM127.709 14.372C128.707 14.372 129.513 14.064 130.129 13.448C130.745 12.832 131.053 12.018 131.053 11.006V5.66C131.053 4.63333 130.745 3.812 130.129 3.196C129.513 2.56533 128.707 2.25 127.709 2.25C126.712 2.25 125.905 2.56533 125.289 3.196C124.688 3.812 124.387 4.63333 124.387 5.66V11.006C124.387 12.018 124.688 12.832 125.289 13.448C125.905 14.064 126.712 14.372 127.709 14.372ZM145.377 16C145.26 16 145.179 15.9487 145.135 15.846L142.055 9.268C142.04 9.224 142.011 9.202 141.967 9.202H138.799C138.74 9.202 138.711 9.23133 138.711 9.29V15.78C138.711 15.9267 138.638 16 138.491 16H136.819C136.672 16 136.599 15.9267 136.599 15.78V0.819999C136.599 0.673332 136.672 0.599999 136.819 0.599999H142.737C143.617 0.599999 144.387 0.783333 145.047 1.15C145.722 1.51667 146.242 2.03 146.609 2.69C146.976 3.35 147.159 4.11267 147.159 4.978C147.159 6.00467 146.888 6.87733 146.345 7.596C145.817 8.3 145.076 8.77667 144.123 9.026C144.064 9.05533 144.05 9.092 144.079 9.136L147.269 15.736C147.284 15.7653 147.291 15.802 147.291 15.846C147.291 15.9487 147.232 16 147.115 16H145.377ZM138.799 2.426C138.74 2.426 138.711 2.45533 138.711 2.514V7.442C138.711 7.50067 138.74 7.53 138.799 7.53H142.473C143.25 7.53 143.874 7.30267 144.343 6.848C144.812 6.37867 145.047 5.76267 145.047 5C145.047 4.22267 144.812 3.59933 144.343 3.13C143.874 2.66067 143.25 2.426 142.473 2.426H138.799ZM150.531 16C150.385 16 150.311 15.9267 150.311 15.78V0.819999C150.311 0.673332 150.385 0.599999 150.531 0.599999H152.203C152.35 0.599999 152.423 0.673332 152.423 0.819999V14.086C152.423 14.1447 152.453 14.174 152.511 14.174H160.101C160.248 14.174 160.321 14.2473 160.321 14.394V15.78C160.321 15.9267 160.248 16 160.101 16H150.531ZM163.298 16C163.151 16 163.078 15.9267 163.078 15.78V0.819999C163.078 0.673332 163.151 0.599999 163.298 0.599999H168.622C170.147 0.599999 171.365 1.00333 172.274 1.81C173.183 2.602 173.638 3.66533 173.638 5V11.6C173.638 12.9347 173.183 14.0053 172.274 14.812C171.365 15.604 170.147 16 168.622 16H163.298ZM165.19 14.086C165.19 14.1447 165.219 14.174 165.278 14.174H168.71C169.561 14.174 170.235 13.9173 170.734 13.404C171.247 12.876 171.511 12.172 171.526 11.292V5.308C171.526 4.428 171.269 3.73133 170.756 3.218C170.257 2.69 169.575 2.426 168.71 2.426H165.278C165.219 2.426 165.19 2.45533 165.19 2.514V14.086Z" fill="white"/>
</svg>
