<svg width="216" height="26" viewBox="0 0 216 26" fill="none" xmlns="http://www.w3.org/2000/svg">
<path d="M50.01 13.97C49.9367 14.014 49.9367 14.058 50.01 14.102C51.5647 14.762 52.342 15.9867 52.342 17.776C52.342 19.1253 51.8947 20.1667 51 20.9C50.1053 21.6333 48.9393 22 47.502 22H42.024C41.8773 22 41.804 21.9267 41.804 21.78V6.82C41.804 6.67333 41.8773 6.6 42.024 6.6H47.326C48.8513 6.6 50.032 6.952 50.868 7.656C51.7187 8.34533 52.144 9.35733 52.144 10.692C52.144 12.276 51.4327 13.3687 50.01 13.97ZM44.004 8.426C43.9453 8.426 43.916 8.45533 43.916 8.514V13.156C43.916 13.2147 43.9453 13.244 44.004 13.244H47.326C48.1767 13.244 48.844 13.0313 49.328 12.606C49.8267 12.1807 50.076 11.6013 50.076 10.868C50.076 10.12 49.8267 9.526 49.328 9.086C48.844 8.646 48.1767 8.426 47.326 8.426H44.004ZM47.502 20.152C48.338 20.152 48.998 19.9247 49.482 19.47C49.9807 19.0007 50.23 18.37 50.23 17.578C50.23 16.786 49.9807 16.1627 49.482 15.708C48.9833 15.2387 48.3013 15.004 47.436 15.004H44.004C43.9453 15.004 43.916 15.0333 43.916 15.092V20.064C43.916 20.1227 43.9453 20.152 44.004 20.152H47.502ZM65.9825 8.206C65.9825 8.35267 65.9092 8.426 65.7625 8.426H57.9525C57.8938 8.426 57.8645 8.45533 57.8645 8.514V13.244C57.8645 13.3027 57.8938 13.332 57.9525 13.332H63.3205C63.4672 13.332 63.5405 13.4053 63.5405 13.552V14.938C63.5405 15.0847 63.4672 15.158 63.3205 15.158H57.9525C57.8938 15.158 57.8645 15.1873 57.8645 15.246V20.086C57.8645 20.1447 57.8938 20.174 57.9525 20.174H65.7625C65.9092 20.174 65.9825 20.2473 65.9825 20.394V21.78C65.9825 21.9267 65.9092 22 65.7625 22H55.9725C55.8258 22 55.7525 21.9267 55.7525 21.78V6.82C55.7525 6.67333 55.8258 6.6 55.9725 6.6H65.7625C65.9092 6.6 65.9825 6.67333 65.9825 6.82V8.206ZM79.351 8.206C79.351 8.35267 79.2776 8.426 79.131 8.426H71.321C71.2623 8.426 71.233 8.45533 71.233 8.514V13.244C71.233 13.3027 71.2623 13.332 71.321 13.332H76.689C76.8356 13.332 76.909 13.4053 76.909 13.552V14.938C76.909 15.0847 76.8356 15.158 76.689 15.158H71.321C71.2623 15.158 71.233 15.1873 71.233 15.246V20.086C71.233 20.1447 71.2623 20.174 71.321 20.174H79.131C79.2776 20.174 79.351 20.2473 79.351 20.394V21.78C79.351 21.9267 79.2776 22 79.131 22H69.341C69.1943 22 69.121 21.9267 69.121 21.78V6.82C69.121 6.67333 69.1943 6.6 69.341 6.6H79.131C79.2776 6.6 79.351 6.67333 79.351 6.82V8.206ZM92.6974 8.206C92.6974 8.35267 92.6241 8.426 92.4774 8.426H84.6894C84.6307 8.426 84.6014 8.45533 84.6014 8.514V13.244C84.6014 13.3027 84.6307 13.332 84.6894 13.332H90.0354C90.1821 13.332 90.2554 13.4053 90.2554 13.552V14.938C90.2554 15.0847 90.1821 15.158 90.0354 15.158H84.6894C84.6307 15.158 84.6014 15.1873 84.6014 15.246V21.78C84.6014 21.9267 84.5281 22 84.3814 22H82.7094C82.5627 22 82.4894 21.9267 82.4894 21.78V6.82C82.4894 6.67333 82.5627 6.6 82.7094 6.6H92.4774C92.6241 6.6 92.6974 6.67333 92.6974 6.82V8.206ZM99.9931 22C99.8465 22 99.7731 21.9267 99.7731 21.78V6.82C99.7731 6.67333 99.8465 6.6 99.9931 6.6H105.317C106.842 6.6 108.06 7.00333 108.969 7.81C109.878 8.602 110.333 9.66533 110.333 11V17.6C110.333 18.9347 109.878 20.0053 108.969 20.812C108.06 21.604 106.842 22 105.317 22H99.9931ZM101.885 20.086C101.885 20.1447 101.914 20.174 101.973 20.174H105.405C106.256 20.174 106.93 19.9173 107.429 19.404C107.942 18.876 108.206 18.172 108.221 17.292V11.308C108.221 10.428 107.964 9.73133 107.451 9.218C106.952 8.69 106.27 8.426 105.405 8.426H101.973C101.914 8.426 101.885 8.45533 101.885 8.514V20.086ZM118.566 22.198C117.495 22.198 116.549 21.978 115.728 21.538C114.906 21.098 114.268 20.482 113.814 19.69C113.359 18.8833 113.132 17.9593 113.132 16.918V11.682C113.132 10.6407 113.359 9.724 113.814 8.932C114.268 8.14 114.906 7.524 115.728 7.084C116.549 6.644 117.495 6.424 118.566 6.424C119.651 6.424 120.604 6.644 121.426 7.084C122.247 7.524 122.885 8.14 123.34 8.932C123.794 9.724 124.022 10.6407 124.022 11.682V16.918C124.022 17.9593 123.794 18.8833 123.34 19.69C122.885 20.482 122.247 21.098 121.426 21.538C120.604 21.978 119.651 22.198 118.566 22.198ZM118.566 20.372C119.563 20.372 120.37 20.064 120.986 19.448C121.602 18.832 121.91 18.018 121.91 17.006V11.66C121.91 10.6333 121.602 9.812 120.986 9.196C120.37 8.56533 119.563 8.25 118.566 8.25C117.568 8.25 116.762 8.56533 116.146 9.196C115.544 9.812 115.244 10.6333 115.244 11.66V17.006C115.244 18.018 115.544 18.832 116.146 19.448C116.762 20.064 117.568 20.372 118.566 20.372ZM137.052 6.6C137.199 6.6 137.272 6.67333 137.272 6.82V8.228C137.272 8.37467 137.199 8.448 137.052 8.448H132.828C132.769 8.448 132.74 8.47733 132.74 8.536V21.78C132.74 21.9267 132.667 22 132.52 22H130.848C130.701 22 130.628 21.9267 130.628 21.78V8.536C130.628 8.47733 130.599 8.448 130.54 8.448H126.514C126.367 8.448 126.294 8.37467 126.294 8.228V6.82C126.294 6.67333 126.367 6.6 126.514 6.6H137.052ZM147.885 22C147.753 22 147.672 21.9413 147.643 21.824L143.507 6.842L143.485 6.776C143.485 6.65867 143.558 6.6 143.705 6.6H145.487C145.619 6.6 145.7 6.666 145.729 6.798L148.611 17.754C148.626 17.7833 148.64 17.798 148.655 17.798C148.684 17.798 148.706 17.7833 148.721 17.754L151.449 6.798C151.478 6.666 151.559 6.6 151.691 6.6H153.429C153.561 6.6 153.642 6.666 153.671 6.798L156.553 17.776C156.568 17.8053 156.582 17.82 156.597 17.82C156.612 17.82 156.626 17.8053 156.641 17.776L159.545 6.798C159.574 6.666 159.655 6.6 159.787 6.6H161.459C161.532 6.6 161.584 6.622 161.613 6.666C161.657 6.71 161.672 6.76867 161.657 6.842L157.675 21.802C157.646 21.934 157.565 22 157.433 22H155.739C155.607 22 155.526 21.934 155.497 21.802L152.615 10.45C152.6 10.406 152.586 10.384 152.571 10.384C152.556 10.384 152.542 10.406 152.527 10.45L149.733 21.802C149.718 21.934 149.638 22 149.491 22H147.885ZM168.709 22.198C167.639 22.198 166.693 21.978 165.871 21.538C165.05 21.098 164.412 20.482 163.957 19.69C163.503 18.8833 163.275 17.9593 163.275 16.918V11.682C163.275 10.6407 163.503 9.724 163.957 8.932C164.412 8.14 165.05 7.524 165.871 7.084C166.693 6.644 167.639 6.424 168.709 6.424C169.795 6.424 170.748 6.644 171.569 7.084C172.391 7.524 173.029 8.14 173.483 8.932C173.938 9.724 174.165 10.6407 174.165 11.682V16.918C174.165 17.9593 173.938 18.8833 173.483 19.69C173.029 20.482 172.391 21.098 171.569 21.538C170.748 21.978 169.795 22.198 168.709 22.198ZM168.709 20.372C169.707 20.372 170.513 20.064 171.129 19.448C171.745 18.832 172.053 18.018 172.053 17.006V11.66C172.053 10.6333 171.745 9.812 171.129 9.196C170.513 8.56533 169.707 8.25 168.709 8.25C167.712 8.25 166.905 8.56533 166.289 9.196C165.688 9.812 165.387 10.6333 165.387 11.66V17.006C165.387 18.018 165.688 18.832 166.289 19.448C166.905 20.064 167.712 20.372 168.709 20.372ZM186.377 22C186.26 22 186.179 21.9487 186.135 21.846L183.055 15.268C183.04 15.224 183.011 15.202 182.967 15.202H179.799C179.74 15.202 179.711 15.2313 179.711 15.29V21.78C179.711 21.9267 179.638 22 179.491 22H177.819C177.672 22 177.599 21.9267 177.599 21.78V6.82C177.599 6.67333 177.672 6.6 177.819 6.6H183.737C184.617 6.6 185.387 6.78333 186.047 7.15C186.722 7.51667 187.242 8.03 187.609 8.69C187.976 9.35 188.159 10.1127 188.159 10.978C188.159 12.0047 187.888 12.8773 187.345 13.596C186.817 14.3 186.076 14.7767 185.123 15.026C185.064 15.0553 185.05 15.092 185.079 15.136L188.269 21.736C188.284 21.7653 188.291 21.802 188.291 21.846C188.291 21.9487 188.232 22 188.115 22H186.377ZM179.799 8.426C179.74 8.426 179.711 8.45533 179.711 8.514V13.442C179.711 13.5007 179.74 13.53 179.799 13.53H183.473C184.25 13.53 184.874 13.3027 185.343 12.848C185.812 12.3787 186.047 11.7627 186.047 11C186.047 10.2227 185.812 9.59933 185.343 9.13C184.874 8.66067 184.25 8.426 183.473 8.426H179.799ZM191.531 22C191.385 22 191.311 21.9267 191.311 21.78V6.82C191.311 6.67333 191.385 6.6 191.531 6.6H193.203C193.35 6.6 193.423 6.67333 193.423 6.82V20.086C193.423 20.1447 193.453 20.174 193.511 20.174H201.101C201.248 20.174 201.321 20.2473 201.321 20.394V21.78C201.321 21.9267 201.248 22 201.101 22H191.531ZM204.298 22C204.151 22 204.078 21.9267 204.078 21.78V6.82C204.078 6.67333 204.151 6.6 204.298 6.6H209.622C211.147 6.6 212.365 7.00333 213.274 7.81C214.183 8.602 214.638 9.66533 214.638 11V17.6C214.638 18.9347 214.183 20.0053 213.274 20.812C212.365 21.604 211.147 22 209.622 22H204.298ZM206.19 20.086C206.19 20.1447 206.219 20.174 206.278 20.174H209.71C210.561 20.174 211.235 19.9173 211.734 19.404C212.247 18.876 212.511 18.172 212.526 17.292V11.308C212.526 10.428 212.269 9.73133 211.756 9.218C211.257 8.69 210.575 8.426 209.71 8.426H206.278C206.219 8.426 206.19 8.45533 206.19 8.514V20.086Z" fill="white"/>
<path d="M27.3 12.7C27.5 12.4 27.7 12.2 27.7 12.2C27.7 12.2 27.7 12.2 27.6 12.2C27.6 12.2 27.6 12.2 27.5 12.2C27.5 12.2 27.5 12.2 27.4 12.1C27.4 12.1 27.4 12.1 27.3 12.1C27.3 12.1 27.2 12.1 27.2 12C27.2 12 27.2 12 27.1 12C27.1 12 27 12 27 11.9C27 11.9 26.9 11.9 26.9 11.8C26.9 11.8 26.8 11.8 26.8 11.7H26.7C26.7 11.7 26.6 11.7 26.6 11.6H26.5C26.4 11.6 26.4 11.6 26.3 11.5C26.3 11.5 26.3 11.5 26.2 11.5C26.1 11.5 26 11.4 25.9 11.4C25.9 11.4 25.9 11.4 25.8 11.4C25.7 11.4 25.7 11.4 25.6 11.3H25.5C25.4 11.3 25.4 11.3 25.3 11.3H25.2C25.1 11.3 25.1 11.3 25 11.3H24.9C25 11 25 11 25 11H24.9C24.9 11 24.9 11 24.8 11C24.7 11 24.6 11 24.5 11C24.3 11 24.1 11.1 23.9 11.1C23.9 10.9 23.9 10.8 23.9 10.6C24.7 10.5 25.6 10.4 26.6 10.1C27.2 9.9 27.8 9.7 28.5 9.5C28.7 9.4 29 9.3 29.2 9.2C29.6 9 29.9 8.7 30.2 8.3C30.3 8.2 30.4 8.1 30.4 7.9C30.6 7.5 30.8 7.1 30.9 6.6C31 6.3 31 6 31 5.6C31 4.8 30.8 4 30.5 3C30.4 2.8 30.4 2.6 30.3 2.4C30.3 2.3 30.2 2.2 30.2 2.2C29.9 2.2 29.7 2 29.5 2H29.4C29.3 2 29.3 2 29.2 2C29 2 28.8 2.1 28.7 2.3C28.6 2.4 28.5 2.6 28.5 2.8C28.5 2.9 28.5 2.9 28.5 3C28.5 3.1 28.5 3.3 28.5 3.5C28.5 3.6 28.5 3.8 28.5 3.9C28.5 4 28.5 4.1 28.5 4.1C28.5 4.3 28.5 4.4 28.4 4.6C28.4 4.7 28.4 4.8 28.3 4.8C28.2 5.3 27.9 5.8 27.5 5.9C27.3 6 27 6 26.5 6.1C26.4 6.1 26.3 6.1 26.1 6.1C26 6.1 26 6.1 25.9 6.1C25.5 6.1 25.1 6.1 24.6 6.1C23.8 6.1 23 6.1 22.3 6C22.2 6 22 6 21.9 6C21.6 6 21.4 6 21.2 6H21.1H21H20.9C20.4 5.7 19.9 5.5 19.4 5.3C19.3 5.3 19.2 5.2 19 5.2C17.7 4.8 16.4 4.8 15.9 4.8C15.8 4.8 15.8 4.8 15.8 4.8H15.7C15.5 4.8 15.1 4.8 14.6 4.9C14.5 4.9 14.4 4.9 14.3 4.9C13.9 5 13.4 5 12.9 5.2C12.8 5.2 12.7 5.3 12.5 5.3C11.9 5.5 11.2 5.8 10.6 6.1C10.5 6.1 10.4 6.1 10.4 6C10.3 6 10.2 6 10.2 6H10.1C9.9 6 9.6 6 9.4 6C9.3 6 9.1 6 9 6C8 6.1 7.2 6.2 6.4 6.2C5.9 6.2 5.4 6.2 5.1 6.2C5 6.2 5 6.2 4.9 6.2C4.8 6.2 4.6 6.2 4.5 6.2C4 6 3.7 6 3.5 5.9C3.1 5.8 2.8 5.3 2.7 4.8C2.7 4.7 2.7 4.6 2.6 4.6C2.6 4.4 2.5 4.3 2.5 4.1C2.5 3.9 2.5 3.6 2.5 3.4C2.5 3.3 2.5 3.3 2.5 3.2C2.5 3.1 2.5 3.1 2.5 3V2.9C2.5 2.7 2.5 2.5 2.4 2.4C2.4 2.3 2.3 2.3 2.3 2.3C2.2 2.1 2 2.1 1.8 2C1.7 2 1.7 2 1.6 2C1.4 2 1.2 2.1 1.1 2.2C1 2.2 1 2.2 1 2.2C0.9 2.3 0.8 2.4 0.7 2.6C0.2 3.8 0 4.8 0 5.8C0 6.1 0 6.5 0.1 6.8C0.1 7 0.2 7.1 0.2 7.2C0.3 7.4 0.4 7.6 0.5 7.8C0.6 7.9 0.6 8.1 0.7 8.2C1 8.6 1.3 8.9 1.8 9.2C2 9.4 2.2 9.5 2.5 9.6C2.7 9.7 3 9.8 3.2 9.9C3.5 10 3.9 10.1 4.2 10.2C4.8 10.4 5.3 10.5 5.8 10.6C5.9 10.6 6 10.6 6.1 10.7C6.3 10.7 6.5 10.8 6.7 10.8C6.8 10.8 6.9 10.8 7 10.8C7.2 10.8 7.4 10.8 7.5 10.8C7.5 10.9 7.5 11.1 7.5 11.2C7.2 11.1 7 11.1 6.8 11.1C6.7 11.1 6.6 11.1 6.5 11.1H6.4H6.3H6.2H6.1C6 11 6 11.1 5.9 11.1H5.8C5.7 11.1 5.7 11.1 5.6 11.1H5.5C5.4 11.1 5.3 11.1 5.3 11.2C5.2 11.2 5.1 11.3 5 11.3C5 11.3 5 11.3 4.9 11.3C4.8 11.3 4.8 11.4 4.7 11.4H4.6C4.6 11.4 4.5 11.4 4.5 11.5H4.4C4.4 11.5 4.3 11.5 4.3 11.6H4.2C4.2 11.6 4.1 11.6 4.1 11.7C4.1 11.7 4.1 11.7 4 11.7C4 11.7 3.9 11.7 3.9 11.8C3.9 11.8 3.9 11.8 3.8 11.8C3.8 11.8 3.7 11.8 3.7 11.9C3.7 11.9 3.7 11.9 3.6 12C3.6 12 3.7 12.2 4 12.5C4.1 12.6 4.2 12.8 4.4 13C4.7 13.4 5.1 13.9 5.4 14.3L5.5 14.4L5.6 14.5C5.6 14.5 5.6 14.5 5.7 14.5L5.8 14.6C5.9 14.6 5.9 14.7 6 14.7C6 14.7 6 14.7 6.1 14.7C6.1 14.7 6.2 14.7 6.3 14.8C6.3 14.8 6.3 14.8 6.4 14.8C6.5 14.8 6.5 14.8 6.6 14.8C6.6 14.8 6.6 14.8 6.7 14.8C6.8 14.8 6.8 14.8 6.9 14.8C7 14.8 7 14.8 7.1 14.8C7.1 14.8 7.1 14.8 7.2 14.8C7.3 14.8 7.3 14.8 7.4 14.8C7.4 14.8 7.4 14.8 7.5 14.8C7.6 14.8 7.6 14.8 7.7 14.8C7.8 14.8 7.8 14.8 7.9 14.8C7.9 14.8 7.9 14.8 8 14.8H8.1C8.1 14.8 8.1 14.8 8.2 14.8C8.2 14.8 8.2 14.8 8.3 14.8H8.4H8.5C8.5 14.8 8.5 14.8 8.6 14.8H8.7H8.8C8.8 14.8 8.8 14.8 8.8 14.9C9.4 15.8 9.8 16.5 10.2 18.3C10.3 18.8 10.4 19.3 10.5 19.8C10.5 20 10.6 20.2 10.6 20.4C10.7 21 10.8 21.6 11 22.1C11 22.3 10.9 22.4 10.9 22.6C10.9 22.7 10.9 22.7 10.9 22.8C10.9 23.1 11 23.4 11.2 23.6C11.4 24 11.7 24.3 12.1 24.7C12.2 24.8 12.4 24.9 12.5 25C12.8 25.2 13.1 25.3 13.5 25.4C13.7 25.5 13.9 25.5 14.1 25.5C14.2 25.5 14.3 25.6 14.3 25.6C14.5 25.7 14.6 25.7 14.8 25.7C15.2 25.8 15.4 25.8 15.6 25.8H15.7H15.8C16.1 25.8 16.5 25.8 17 25.6C17.2 25.5 17.4 25.5 17.5 25.4C17.6 25.4 17.6 25.4 17.7 25.3C17.8 25.3 18 25.2 18.1 25.2C18.8 25 19.4 24.7 19.8 24.3C19.9 24.3 19.9 24.2 20 24.2C20.3 23.9 20.5 23.5 20.6 23.1C20.6 23 20.6 23 20.6 22.9C20.6 22.8 20.6 22.7 20.7 22.6C20.7 22.4 20.7 22.2 20.7 21.9C20.7 21.8 20.7 21.7 20.6 21.6C20.6 21.5 20.7 21.3 20.7 21.2C20.7 21 20.8 20.9 20.8 20.7C20.9 20.4 20.9 20.1 21 19.8C21.1 19.3 21.2 18.8 21.3 18.3C21.7 16.5 22.1 15.8 22.7 14.9C22.7 14.9 22.7 14.9 22.7 14.8H22.8H22.9C22.9 14.8 22.9 14.8 23 14.8H23.1H23.2C23.2 14.8 23.2 14.8 23.3 14.8C23.3 14.8 23.3 14.8 23.4 14.8H23.5C23.5 14.8 23.5 14.8 23.6 14.8C23.7 14.8 23.7 14.8 23.8 14.8C23.9 14.8 23.9 14.8 24 14.8C24 14.8 24 14.8 24.1 14.8C24.2 14.8 24.2 14.8 24.3 14.8C24.3 14.8 24.3 14.8 24.4 14.8C24.5 14.8 24.5 14.8 24.6 14.8C24.7 14.8 24.7 14.8 24.8 14.8C24.8 14.8 24.8 14.8 24.9 14.8C25 14.8 25 14.8 25.1 14.8C25.1 14.8 25.1 14.8 25.2 14.8C25.3 14.8 25.3 14.8 25.4 14.7C25.4 14.7 25.4 14.7 25.5 14.7C25.6 14.7 25.6 14.6 25.7 14.6L25.8 14.5C25.8 14.5 25.8 14.5 25.9 14.5L26 14.4L26.1 14.3C26.4 13.9 26.8 13.4 27.1 13C27.1 13 27.2 12.8 27.3 12.7Z" fill="#DB4848"/>
</svg>
