<svg width="19" height="22" viewBox="0 0 19 22" fill="none" xmlns="http://www.w3.org/2000/svg">
<g filter="url(#filter0_d)">
<path d="M13.52 4.10803C13.22 3.95122 12.89 3.97735 12.59 4.10803L12.56 4.13417L8.48 7.13983H5.3C5.12 7.13983 5 7.24438 5 7.40119V12.3671C5 12.4455 5.03 12.4978 5.09 12.55C5.15 12.6023 5.21 12.6284 5.3 12.6284H8.48L12.53 15.8693C12.53 15.8693 12.56 15.8955 12.59 15.8955C12.74 15.9739 12.89 16 13.07 16C13.22 16 13.37 15.9739 13.52 15.8955C13.82 15.7386 14 15.4773 14 15.1636V4.83985C14 4.52621 13.82 4.26485 13.52 4.10803Z" stroke="white" stroke-width="1.5" stroke-miterlimit="10"/>
</g>
<defs>
<filter id="filter0_d" x="0.25" y="0.249939" width="18.5" height="21.5001" filterUnits="userSpaceOnUse" color-interpolation-filters="sRGB">
<feFlood flood-opacity="0" result="BackgroundImageFix"/>
<feColorMatrix in="SourceAlpha" type="matrix" values="0 0 0 0 0 0 0 0 0 0 0 0 0 0 0 0 0 0 127 0"/>
<feOffset dy="1"/>
<feGaussianBlur stdDeviation="2"/>
<feColorMatrix type="matrix" values="0 0 0 0 0 0 0 0 0 0 0 0 0 0 0 0 0 0 0.5 0"/>
<feBlend mode="normal" in2="BackgroundImageFix" result="effect1_dropShadow"/>
<feBlend mode="normal" in="SourceGraphic" in2="effect1_dropShadow" result="shape"/>
</filter>
</defs>
</svg>
