<svg width="20" height="15" viewBox="0 0 20 15" fill="none" xmlns="http://www.w3.org/2000/svg">
<path d="M19.73 3.39155C19.4974 3.19301 19.1692 3.15117 18.8942 3.28507L14.6855 5.33394L10.7365 0.78081C10.5905 0.612378 10.3784 0.515625 10.1555 0.515625C9.93253 0.515625 9.72056 0.612378 9.57447 0.78081L5.62547 5.3339L1.41681 3.28503C1.14175 3.15117 0.813572 3.19297 0.58092 3.39151C0.348268 3.59005 0.255361 3.90761 0.344307 4.20025L3.26688 13.814C3.36536 14.1379 3.66412 14.3594 4.00271 14.3594H16.3083C16.6468 14.3594 16.9456 14.1379 17.0441 13.814L19.9666 4.20029C20.0556 3.90765 19.9627 3.59009 19.73 3.39155ZM15.7382 12.8212H4.57273L2.32885 5.43985L5.48299 6.97539C5.79617 7.12782 6.17249 7.05084 6.40064 6.7878L10.1555 2.45856L13.9104 6.7878C14.1385 7.05087 14.5149 7.12778 14.828 6.97539L17.9821 5.43985L15.7382 12.8212Z" fill="white"/>
</svg>
