<svg width="13" height="17" viewBox="0 0 13 17" fill="none" xmlns="http://www.w3.org/2000/svg">
<path fill-rule="evenodd" clip-rule="evenodd" d="M10.9623 5.79729C12.184 6.85233 12.8826 8.14596 12.8826 9.92007C12.8826 13.6162 9.99485 16.5268 6.45081 16.5268C2.90358 16.5268 0.000488281 13.6142 0.000488281 9.92007C0.000488281 7.88557 0.441365 6.62819 1.73556 4.53821C2.14508 3.87689 3.13944 4.11772 3.21648 4.89689C3.2857 5.59702 3.49826 6.19298 3.80796 6.64987C3.6014 4.18101 4.67325 1.40442 7.31618 0.0853117C7.92806 -0.220083 8.61084 0.341788 8.45162 1.01969C8.03901 2.77651 8.46414 3.72168 9.57543 4.73989C9.60254 4.76473 9.74099 4.86694 9.9241 5.00213C10.2557 5.24694 10.7338 5.59989 10.9623 5.79729ZM2.11054 7.25213C1.88367 7.78029 1.61075 8.41565 1.61075 9.92007C1.61075 12.6954 3.78548 14.8773 6.45081 14.8773C9.11132 14.8773 11.2723 12.6992 11.2723 9.92007C11.2723 8.68024 10.8091 7.8225 9.92441 7.05843C9.78476 6.93782 9.45743 6.69433 9.14934 6.46514C8.85804 6.24844 8.58393 6.04453 8.50191 5.96939C7.43502 4.99184 6.78276 3.95087 6.69417 2.5628C6.15474 3.10147 4.91521 4.77611 5.61385 8.0903C5.72216 8.60408 5.33997 9.08916 4.82686 9.08916C3.80881 9.08916 2.80248 8.2916 2.18745 7.07071C2.16277 7.13053 2.13697 7.1906 2.11054 7.25213Z" fill="white"/>
</svg>
