<svg width="20" height="19" viewBox="0 0 20 19" fill="none" xmlns="http://www.w3.org/2000/svg">
<path d="M17.5998 7.91292C17.9257 7.59522 18.0408 7.12896 17.9002 6.6961C17.7595 6.26324 17.3924 5.9537 16.942 5.88827L13.0035 5.31599C12.9262 5.30477 12.8594 5.25622 12.8248 5.18613L11.0635 1.61737C10.8621 1.20923 10.4543 0.955688 9.9991 0.955688C9.54395 0.955688 9.13609 1.20923 8.93468 1.61737L7.17339 5.18616C7.13876 5.25622 7.07196 5.30477 6.99462 5.31602L3.05629 5.88827C2.60588 5.9537 2.23876 6.26324 2.09807 6.6961C1.95738 7.12896 2.07248 7.59522 2.39843 7.91292L5.24827 10.6908C5.3042 10.7454 5.32976 10.824 5.31654 10.901L4.64378 14.8234C4.56686 15.272 4.74777 15.7169 5.11598 15.9844C5.48419 16.252 5.96328 16.2865 6.36609 16.0748L9.88865 14.2229C9.95783 14.1865 10.0404 14.1865 10.1096 14.2229L13.6322 16.0748C13.8074 16.1669 13.997 16.2124 14.1857 16.2124C14.4307 16.2124 14.6742 16.1356 14.8822 15.9843C15.2504 15.7168 15.4314 15.2719 15.3544 14.8234L14.6817 10.9009C14.6685 10.8239 14.694 10.7453 14.7499 10.6908L17.5998 7.91292ZM13.7458 11.0615L14.4186 14.984C14.4411 15.1153 14.36 15.1902 14.3241 15.2162C14.2882 15.2422 14.192 15.2963 14.0741 15.2342L10.5515 13.3823C10.3786 13.2914 10.1889 13.246 9.99917 13.246C9.80944 13.246 9.61971 13.2914 9.44682 13.3823L5.92426 15.2342C5.80635 15.2962 5.71013 15.2422 5.67424 15.2161C5.63835 15.1901 5.55728 15.1152 5.57981 14.984L6.25257 11.0615C6.31863 10.6764 6.19105 10.2837 5.91118 10.0109L3.06135 7.23299C2.96597 7.13997 2.98756 7.03179 3.00131 6.98961C3.01498 6.94739 3.06114 6.84716 3.19293 6.82804L7.13124 6.25575C7.5179 6.19957 7.85205 5.95686 8.02501 5.6064L9.78631 2.03762C9.84527 1.91819 9.95481 1.90529 9.99921 1.90529C10.0435 1.90529 10.1531 1.91816 10.2121 2.03762V2.03765L11.9734 5.60644C12.1463 5.9569 12.4804 6.19961 12.8671 6.25578L16.8054 6.82807C16.9372 6.8472 16.9834 6.94742 16.9971 6.98964C17.0108 7.03186 17.0324 7.14007 16.937 7.23302L14.0872 10.0109C13.8073 10.2837 13.6798 10.6764 13.7458 11.0615Z" fill="#F35959" stroke="#F35959" stroke-width="0.5"/>
<path d="M15.547 1.61707C15.3348 1.46295 15.0379 1.50999 14.8838 1.72211L14.3798 2.41579C14.2257 2.62791 14.2727 2.92487 14.4848 3.07899C14.5692 3.14019 14.6668 3.16968 14.7635 3.16968C14.9104 3.16968 15.0551 3.1018 15.148 2.97398L15.652 2.2803C15.8062 2.06814 15.7591 1.77119 15.547 1.61707Z" fill="#F35959" stroke="#F35959" stroke-width="0.5"/>
<path d="M5.61687 2.41305L5.11285 1.71937C4.95877 1.50732 4.66185 1.46028 4.44965 1.61433C4.23752 1.76845 4.19049 2.0654 4.34461 2.27753L4.84863 2.97121C4.94154 3.09914 5.08631 3.16698 5.23319 3.16698C5.32997 3.16698 5.42763 3.13749 5.51186 3.07625C5.72399 2.92217 5.77102 2.62521 5.61687 2.41305Z" fill="#F35959" stroke="#F35959" stroke-width="0.5"/>
<path d="M2.74199 11.6083C2.66096 11.359 2.39311 11.2225 2.14369 11.3035L1.3282 11.5685C1.07878 11.6495 0.942339 11.9175 1.02337 12.1668C1.08855 12.3675 1.27469 12.4951 1.47483 12.4951C1.52345 12.4951 1.57291 12.4875 1.62167 12.4716L2.43716 12.2066C2.68655 12.1256 2.82302 11.8578 2.74199 11.6083Z" fill="#F35959" stroke="#F35959" stroke-width="0.5"/>
<path d="M10.0002 16.88C9.73797 16.88 9.52539 17.0926 9.52539 17.3548V18.2123C9.52539 18.4745 9.73797 18.6871 10.0002 18.6871C10.2624 18.6871 10.475 18.4745 10.475 18.2123V17.3548C10.475 17.0926 10.2624 16.88 10.0002 16.88Z" fill="#F35959" stroke="#F35959" stroke-width="0.5"/>
<path d="M18.6715 11.5691L17.856 11.3041C17.6067 11.2231 17.3388 11.3595 17.2577 11.609C17.1767 11.8584 17.3131 12.1262 17.5626 12.2073L18.3781 12.4723C18.4268 12.4881 18.4763 12.4956 18.5249 12.4956C18.725 12.4956 18.9112 12.368 18.9764 12.1674C19.0574 11.918 18.9209 11.6501 18.6715 11.5691Z" fill="#F35959" stroke="#F35959" stroke-width="0.5"/>
</svg>
