<svg width="20" height="20" viewBox="0 0 20 20" fill="none" xmlns="http://www.w3.org/2000/svg">
<path d="M10 0C4.47327 0 0 4.4725 0 10C0 15.5267 4.4725 20 10 20C15.5267 20 20 15.5275 20 10C20 4.47327 15.5275 0 10 0ZM10 18.4375C5.33676 18.4375 1.5625 14.6637 1.5625 10C1.5625 5.33676 5.3363 1.5625 10 1.5625C14.6632 1.5625 18.4375 5.3363 18.4375 10C18.4375 14.6632 14.6637 18.4375 10 18.4375ZM17.0312 7.91672V10.8855C17.0312 11.317 16.6815 11.6667 16.25 11.6667C15.8185 11.6667 15.4688 11.317 15.4688 10.8855V9.80286L12.6358 12.6358C12.3306 12.9408 11.8359 12.9408 11.5309 12.6358L7.91672 9.02161L4.30252 12.6358C3.99734 12.9408 3.50281 12.941 3.19763 12.6358C2.89261 12.3306 2.89261 11.8359 3.19763 11.5309L7.36435 7.3642C7.66953 7.05917 8.16406 7.05917 8.46924 7.3642L12.0834 10.9785L14.3639 8.69797H13.2812C12.8497 8.69797 12.5 8.34824 12.5 7.91672C12.5 7.4852 12.8497 7.13547 13.2812 7.13547H16.25C16.6879 7.13547 17.0312 7.49451 17.0312 7.91672Z" fill="white"/>
</svg>
