<svg width="44" height="44" viewBox="0 0 44 44" fill="none" xmlns="http://www.w3.org/2000/svg">
<g clip-path="url(#clip0)">
<path d="M42.7777 22.7566C42.7777 18.1194 39.0194 14.3611 34.3823 14.3611C33.1857 14.3611 31.0187 15.0676 31.0187 15.0676L14.9758 16.7591C14.9758 16.7591 11.6551 14.8268 9.61884 14.8268C4.9805 14.8268 1.22217 18.5851 1.22217 23.2222C1.22217 23.5119 1.23683 23.7979 1.26495 24.0802C1.71839 35.1548 10.8154 44 21.9999 44C33.4754 44 42.7777 34.6977 42.7777 23.2222C42.7777 23.1587 42.7667 23.0988 42.7631 23.0352C42.7667 22.9423 42.7777 22.8507 42.7777 22.7566Z" fill="#FFCB4C"/>
<path d="M36.8205 16.8068C35.6704 16.5086 35.5873 17.2786 34.1292 17.1075C32.7016 16.94 34.6535 16.2042 33.8909 15.7728C33.6342 15.6274 33.2663 15.5968 32.8129 15.653C31.5271 15.8107 12.0913 16.3179 11.3665 16.6675C10.7224 16.9779 10.3411 17.3372 9.75563 16.7909C9.01863 16.104 7.96386 16.5 7.6583 16.7286C7.26474 17.0244 7.18286 17.611 7.9443 18.2894C8.7033 18.8027 9.98908 19.3392 12.1793 19.7059C12.4201 19.7462 12.6254 19.7621 12.8173 19.7695C14.317 19.8196 14.5247 17.7284 16.6429 17.6721C18.0313 17.6355 30.2743 18.9799 31.2826 18.843C31.4061 18.8259 31.5356 18.8137 31.6847 18.8137C33.5951 18.8137 34.0387 20.5859 36.0713 19.1999C36.933 18.4996 38.2847 17.1857 36.8205 16.8068Z" fill="#F19020"/>
<path d="M7.25732 11.1406C9.11877 13.0069 10.44 14.9845 11.3664 16.6687C12.0582 17.9263 12.5349 19.0263 12.8172 19.7707C14.3169 19.8208 14.5247 18.9518 16.6428 18.8956C18.0312 18.8589 18.822 19.8355 19.8487 20.3977C21.6844 21.4023 22.9885 19.5055 24.3941 19.5055C25.433 19.5055 27.1062 20.9807 28.2759 20.4392C29.9711 19.6533 30.2742 18.9836 31.2825 18.8455C31.6761 17.8787 32.1882 16.7726 32.8128 15.6567C33.7172 14.0385 34.8637 12.3995 36.2851 11.143H7.25732V11.1406Z" fill="#F36C24"/>
<path d="M35.8183 11.5317C37.384 9.988 7.65954 11.5512 8.51265 12.4948C9.72021 13.8319 11.2015 16.3484 11.2015 16.3484C11.2015 16.3484 17.0157 19.2879 21.4083 15.5833C24.4639 17.4167 28.7416 16.7677 30.6508 13.6168C30.6508 13.6168 32.1382 14.1704 33.6464 14.2658C33.6464 14.2658 34.8112 12.5241 35.8183 11.5317Z" fill="#CE5C1F"/>
<path d="M22.0002 41.052C24.9244 41.052 27.2949 38.3433 27.2949 35.002C27.2949 31.6607 24.9244 28.952 22.0002 28.952C19.0761 28.952 16.7056 31.6607 16.7056 35.002C16.7056 38.3433 19.0761 41.052 22.0002 41.052Z" fill="#65471B"/>
<path d="M17.1111 25.1851C17.1111 26.9854 16.0159 28.4448 14.6666 28.4448C13.3161 28.4448 12.2222 26.9854 12.2222 25.1851C12.2222 23.3848 13.3161 21.9254 14.6666 21.9254C16.0159 21.9254 17.1111 23.3848 17.1111 25.1851ZM31.7777 25.1839C31.7777 26.9842 30.6838 28.4436 29.3333 28.4436C27.9827 28.4436 26.8888 26.9842 26.8888 25.1839C26.8888 23.3848 27.9839 21.9242 29.3333 21.9242C30.6838 21.9254 31.7777 23.3848 31.7777 25.1839Z" fill="#65471B"/>
<path d="M38.0418 4.55277C37.7485 4.55277 37.4711 4.60777 37.2034 4.68599C36.3625 3.65321 35.0975 2.97977 33.6614 2.97977C33.5551 2.97977 33.4548 3.00421 33.3497 3.01155C32.4526 2.00077 31.1571 1.35055 29.6989 1.35055C27.8595 1.35055 26.2767 2.37599 25.4383 3.87566C25.0154 2.90032 24.0462 2.2171 22.9156 2.2171C22.0381 2.2171 21.2668 2.6351 20.7633 3.27432C20.1424 1.47766 18.4557 0.179657 16.4488 0.179657C14.8318 0.179657 13.4177 1.02177 12.6013 2.28555C12.3764 2.2501 12.1515 2.21466 11.9168 2.21466C10.1666 2.21466 8.66451 3.2071 7.89206 4.64932C7.64395 4.60288 7.39095 4.57232 7.1294 4.57232C4.85117 4.57232 3.00439 6.4191 3.00439 8.69732C3.00439 10.9755 4.85117 12.8223 7.1294 12.8223C7.84806 12.8223 8.51662 12.628 9.10206 12.3029C9.56162 12.6475 10.1263 12.8602 10.7459 12.8602C10.9232 12.8602 11.0943 12.8407 11.2617 12.8077C12.3067 14.4931 14.1547 15.6224 16.2838 15.6224C18.3726 15.6224 20.2023 14.5408 21.2619 12.9128C22.1419 13.9908 23.4644 14.6935 24.9641 14.6935C27.1824 14.6935 29.0304 13.1804 29.5792 11.1357C29.6207 11.1369 29.6586 11.1479 29.7002 11.1479C30.0461 11.1479 30.3834 11.11 30.7097 11.0415C31.5091 11.7211 32.5321 12.1464 33.6638 12.1464C35.0987 12.1464 36.365 11.473 37.2046 10.4402C37.4723 10.5184 37.7497 10.5734 38.0431 10.5734C39.7053 10.5734 41.0534 9.22532 41.0534 7.5631C41.0534 5.90088 39.7041 4.55277 38.0418 4.55277Z" fill="#CCD6DD"/>
<path d="M33.9717 9.64087C35.4034 9.64087 36.5641 8.48025 36.5641 7.04854C36.5641 5.61683 35.4034 4.45621 33.9717 4.45621C32.54 4.45621 31.3794 5.61683 31.3794 7.04854C31.3794 8.48025 32.54 9.64087 33.9717 9.64087Z" fill="#E1E8ED"/>
<path d="M24.2929 7.21479C24.2929 5.75668 23.111 4.57356 21.6529 4.57356C21.2031 4.57356 20.7851 4.69701 20.4148 4.89501C20.108 4.16045 19.3832 3.64345 18.5362 3.64345C17.8432 3.64345 17.2321 3.99179 16.8642 4.52101C16.0453 3.75956 14.9563 3.2829 13.75 3.2829C11.605 3.2829 9.81932 4.76179 9.31944 6.75156C8.87333 6.30301 8.2561 6.02434 7.57288 6.02434C6.21499 6.02434 5.11377 7.12556 5.11377 8.48345C5.11377 9.84134 6.21499 10.9426 7.57288 10.9426C8.4321 10.9426 9.18499 10.5013 9.62499 9.83401C10.2569 11.1552 11.4938 12.1232 12.9849 12.375C13.4615 13.1939 14.3379 13.75 15.3535 13.75C16.6662 13.75 17.7601 12.8285 18.0339 11.5989C18.4299 11.8189 18.8784 11.9558 19.3624 11.9558C20.6702 11.9558 21.7604 11.0403 22.0391 9.8169C23.3127 9.62745 24.2929 8.5409 24.2929 7.21479Z" fill="#E1E8ED"/>
</g>
<defs>
<clipPath id="clip0">
<rect width="44" height="44" fill="white"/>
</clipPath>
</defs>
</svg>
