<svg width="44" height="44" viewBox="0 0 44 44" fill="none" xmlns="http://www.w3.org/2000/svg">
<path d="M22 44C34.1503 44 44 34.1503 44 22C44 9.84974 34.1503 0 22 0C9.84974 0 0 9.84974 0 22C0 34.1503 9.84974 44 22 44Z" fill="#FFCC4D"/>
<path d="M33.4093 28.8799C33.1918 28.6831 32.8667 28.6709 32.6332 28.8444C32.5855 28.8799 27.8397 32.3889 21.9999 32.3889C16.1748 32.3889 11.413 28.8799 11.3665 28.8444C11.1331 28.6709 10.808 28.6856 10.5904 28.8799C10.3741 29.0754 10.3252 29.3981 10.4755 29.6474C10.6332 29.9102 14.4074 36.0556 21.9999 36.0556C29.5923 36.0556 33.3678 29.9102 33.5242 29.6474C33.6745 29.3969 33.6269 29.0754 33.4093 28.8799Z" fill="#664500"/>
<path d="M22.0002 32.5001C21.8193 32.5001 21.6445 32.4866 21.4648 32.4805V38.0001H22.5343V32.4793C22.3571 32.4854 22.1811 32.5001 22.0002 32.5001Z" fill="#65471B"/>
<path d="M26.8888 31.7778C26.9083 31.7729 25.1166 32.2398 23.8992 32.3718C23.4519 32.4231 22.9984 32.4647 22.534 32.4806V38.0013H24.4443C25.7888 38.0013 26.8888 36.9013 26.8888 35.5569V31.7778ZM17.111 31.7778C17.0914 31.7729 18.8832 32.2398 20.1006 32.3718C20.5479 32.4231 21.0013 32.4647 21.4658 32.4806V38.0013H19.5554C18.211 38.0013 17.111 36.9013 17.111 35.5569V31.7778Z" fill="white"/>
<path d="M33.4092 28.8799C33.1916 28.6831 32.8665 28.6709 32.6331 28.8444C32.5964 28.8713 29.8721 30.8831 26.0196 31.8633C25.4782 32.0014 23.7414 32.3889 22.0034 32.3901C20.2629 32.3901 18.5213 32.0014 17.9798 31.8633C14.1274 30.8831 11.4031 28.8713 11.3664 28.8444C11.1342 28.6709 10.8078 28.6831 10.5903 28.8799C10.3727 29.0754 10.3251 29.3969 10.4754 29.6474C10.5939 29.8454 12.7793 33.396 17.1108 35.1242V32.8888C17.0913 32.8839 18.8831 33.3508 20.1004 33.4828C20.5477 33.5341 21.0012 33.5756 21.4656 33.5915C21.6441 33.5977 21.8188 33.6111 21.9997 33.6111C22.1806 33.6111 22.3554 33.5977 22.5351 33.5915C22.9995 33.5756 23.4529 33.5353 23.9003 33.4828C25.1176 33.3508 26.9094 32.8839 26.8898 32.8888V35.1242C31.2214 33.396 33.4067 29.8454 33.5253 29.6474C33.6744 29.3969 33.6267 29.0754 33.4092 28.8799ZM32.5402 17.1404C32.5402 19.2353 31.3937 20.9342 29.9784 20.9342C28.5643 20.9342 27.4166 19.2353 27.4166 17.1404C27.4166 15.0455 28.5631 13.3466 29.9784 13.3466C31.3937 13.3466 32.5402 15.0455 32.5402 17.1404ZM11.5583 17.1404C11.5583 19.2353 12.7047 20.9342 14.1201 20.9342C15.5342 20.9342 16.6818 19.2353 16.6818 17.1404C16.6818 15.0455 15.5354 13.3466 14.1201 13.3466C12.7047 13.3466 11.5583 15.0455 11.5583 17.1404Z" fill="#65471B"/>
<path d="M42.5431 11.7663C42.3341 11.5634 40.9945 12.1012 39.6391 11.4107C36.8426 9.98554 29.7757 8.61054 25.1753 11.8702C24.6827 12.2185 22.6245 12.2772 22.0489 12.2528C21.4732 12.2784 19.415 12.2198 18.9224 11.8702C14.3232 8.61054 7.2563 9.98554 4.45985 11.4107C3.10441 12.1012 1.76485 11.5634 1.55585 11.7663C1.25397 12.0584 1.25397 13.2281 1.55708 13.5214C1.85774 13.8135 3.3623 14.1509 3.66174 15.0272C3.96363 15.9048 3.96608 21.087 6.36652 22.8788C8.61419 24.5557 13.8575 25.0604 17.1807 23.1697C20.0799 21.5209 19.9784 18.0498 20.5101 15.9818C20.6995 15.2448 21.2336 14.8732 22.0501 14.8732C22.8665 14.8732 23.4006 15.2448 23.5901 15.9818C24.1217 18.0485 24.0191 21.5209 26.9194 23.1697C30.2426 25.0592 35.486 24.5544 37.7324 22.8788C40.1341 21.0882 40.1365 15.9048 40.4372 15.0272C40.7366 14.1509 42.2412 13.8123 42.5419 13.5214C42.845 13.2281 42.8462 12.0584 42.5431 11.7663ZM17.8615 16.2274C17.7674 17.578 17.5266 20.1715 15.9096 21.0919C14.9184 21.6565 13.6265 22 12.2747 22H12.2735C10.7763 22 8.70096 21.5759 7.88941 20.9709C6.87496 20.2143 6.48874 17.1001 6.3433 15.9353C6.25041 15.1934 6.00108 13.3809 6.81752 13.1022C8.11308 12.661 9.92074 12.3163 11.77 12.3163C12.617 12.3163 15.4623 12.3689 16.8483 13.222C18.0766 13.9761 17.9141 15.4843 17.8615 16.2274ZM37.7569 15.9182C37.6114 17.0842 37.2252 20.2143 36.2107 20.9709C35.3992 21.5759 33.3239 22 31.8266 22H31.8254C30.4724 22 29.1817 21.6565 28.1893 21.0919C26.5723 20.1728 26.3315 17.5951 26.2374 16.2445C26.1861 15.5014 26.0223 13.9822 27.2506 13.2281C28.6379 12.375 31.482 12.3163 32.329 12.3163C34.1782 12.3163 35.9846 12.6549 37.2814 13.0961C38.0979 13.3748 37.8497 15.1763 37.7569 15.9182Z" fill="#292F33"/>
</svg>
