<svg width="44" height="44" viewBox="0 0 44 44" fill="none" xmlns="http://www.w3.org/2000/svg">
<path d="M44 22C44 34.1501 34.1501 44 22 44C9.85111 44 0 34.1501 0 22C0 9.85111 9.85111 0 22 0C34.1501 0 44 9.85111 44 22Z" fill="#DA2F47"/>
<path d="M31.1483 36.5188C31.0933 36.3 29.7207 31.1667 21.9999 31.1667C14.2779 31.1667 12.9066 36.3 12.8516 36.5188C12.7844 36.784 12.9041 37.059 13.1413 37.1959C13.3796 37.3291 13.6778 37.2924 13.8746 37.1018C13.8978 37.0786 16.2628 34.8333 21.9999 34.8333C27.737 34.8333 30.1033 37.0786 30.1253 37.1006C30.2426 37.2167 30.399 37.2778 30.5555 37.2778C30.6581 37.2778 30.762 37.2521 30.8561 37.1996C31.0957 37.0627 31.2155 36.7852 31.1483 36.5188ZM19.1974 21.1359C15.219 17.1576 8.82559 17.1111 8.55547 17.1111C7.88081 17.1111 7.33447 17.6574 7.33447 18.3309C7.33325 19.0056 7.87959 19.5531 8.55425 19.5556C8.5897 19.5556 10.907 19.5824 13.4224 20.4563C12.6976 21.2386 12.2221 22.4534 12.2221 23.8333C12.2221 26.1971 13.5898 28.1111 15.2777 28.1111C16.9656 28.1111 18.3333 26.1971 18.3333 23.8333C18.3333 23.6207 18.31 23.4178 18.288 23.2137C18.3039 23.2137 18.3186 23.2222 18.3333 23.2222C18.6461 23.2222 18.959 23.1024 19.1974 22.8641C19.6753 22.3862 19.6753 21.6138 19.1974 21.1359ZM35.4444 17.1111C35.1743 17.1111 28.782 17.1576 24.8025 21.1359C24.3246 21.6138 24.3246 22.3862 24.8025 22.8641C25.0408 23.1024 25.3537 23.2222 25.6666 23.2222C25.6825 23.2222 25.6959 23.2137 25.7106 23.2137C25.691 23.4178 25.6666 23.6207 25.6666 23.8333C25.6666 26.1971 27.0343 28.1111 28.7221 28.1111C30.41 28.1111 31.7777 26.1971 31.7777 23.8333C31.7777 22.4534 31.3023 21.2386 30.5775 20.4563C33.0928 19.5824 35.4101 19.5556 35.4468 19.5556C36.1203 19.5531 36.6666 19.0056 36.6654 18.3309C36.6641 17.6574 36.119 17.1111 35.4444 17.1111Z" fill="#292F33"/>
</svg>
