<svg width="44" height="44" viewBox="0 0 44 44" fill="none" xmlns="http://www.w3.org/2000/svg">
<path d="M37.5566 6.44349C46.1476 15.0345 46.1476 28.9654 37.5566 37.5564C28.9656 46.1474 15.036 46.1474 6.44374 37.5564C-2.14726 28.9654 -2.14726 15.0345 6.44374 6.44349C15.0347 -2.14751 28.9644 -2.14751 37.5566 6.44349Z" fill="#FFCB4C"/>
<path d="M23.5631 23.5644C19.2926 27.8349 15.9621 30.1693 11.7748 32.9914C10.8202 33.638 9.41832 35.3491 11.776 37.708C16.4901 42.4221 27.8005 42.8988 35.349 35.3503C42.8987 27.8007 42.4232 16.4914 37.7067 11.7761C35.349 9.41722 33.6367 10.8203 32.9913 11.7749C30.1704 15.961 27.8348 19.2928 23.5631 23.5644Z" fill="#65471B"/>
<path d="M14.1338 35.3503C14.1338 35.3503 18.8491 32.9927 25.9209 25.9197C32.9939 18.8479 35.3503 14.1338 35.3503 14.1338C35.3503 14.1338 37.7068 21.2068 29.4568 29.4568C21.2068 37.708 14.1338 35.3503 14.1338 35.3503Z" fill="white"/>
<path d="M29.6986 8.1339C29.5263 8.15834 26.7983 8.57023 23.6572 10.1237C23.5814 10.0002 23.4958 9.88167 23.3895 9.77534C23.0705 9.45634 22.6623 9.28767 22.2455 9.25345C23.354 7.24534 24.663 5.90823 24.6875 5.88501C25.1617 5.40834 25.1617 4.63345 24.6838 4.15801C24.2059 3.68256 23.4347 3.68134 22.958 4.15801C22.7674 4.34867 18.2794 8.90145 18.2794 14.5286C18.2794 15.0236 18.5764 15.4685 19.0335 15.6579C19.4894 15.8473 20.0161 15.7422 20.3657 15.3927C24.3318 11.4266 29.9895 10.5612 30.0469 10.5527C30.3183 10.5136 30.5554 10.3877 30.735 10.208C30.9978 9.94523 31.1384 9.56512 31.0821 9.16912C30.9832 8.50056 30.3659 8.03856 29.6986 8.1339ZM14.3145 18.4922C8.68737 18.4922 4.13459 22.9802 3.94393 23.1709C3.46726 23.6476 3.46726 24.42 3.94393 24.8967C4.41937 25.3746 5.19304 25.3758 5.67215 24.9003C5.69537 24.8771 7.03248 23.5669 9.04059 22.4596C9.07604 22.8763 9.24348 23.2846 9.56248 23.6036C9.66881 23.7099 9.78737 23.7955 9.91082 23.8712C8.35615 27.0111 7.94426 29.7403 7.91982 29.9127C7.82448 30.5812 8.28893 31.1997 8.95626 31.295C9.35348 31.3525 9.73115 31.2119 9.99393 30.9491C10.1736 30.7695 10.2995 30.5311 10.3386 30.2586C10.3471 30.2023 11.1917 24.5667 15.1786 20.5798C15.5281 20.2302 15.632 19.7047 15.4438 19.2476C15.2544 18.7892 14.8095 18.4922 14.3145 18.4922Z" fill="#65471B"/>
<path d="M36.7903 14.7339C40.1404 15.1421 43.1874 12.7563 43.5944 9.40498C44.0026 6.05487 41.618 3.00787 38.2667 2.59965C34.9166 2.19265 25.5446 5.97665 25.3967 7.19032C25.2488 8.40276 33.4401 14.3244 36.7903 14.7339ZM14.8587 36.6654C15.2669 40.0155 12.8811 43.0625 9.52982 43.4695C6.1797 43.8778 3.1327 41.4932 2.72448 38.1419C2.31626 34.7905 6.10148 25.4185 7.31515 25.2707C8.52759 25.124 14.4493 33.3153 14.8587 36.6654Z" fill="#64AADD"/>
</svg>
