<svg width="44" height="44" viewBox="0 0 44 44" fill="none" xmlns="http://www.w3.org/2000/svg">
<path d="M44 22C44 34.1501 34.1501 44 22 44C9.84989 44 0 34.1501 0 22C0 9.84989 9.84989 0 22 0C34.1501 0 44 9.84989 44 22Z" fill="#FFCC4D"/>
<path d="M22.0003 26.7043C18.3751 26.7043 15.9686 26.2814 12.9937 25.7033C12.3129 25.5738 10.9917 25.7033 10.9917 27.7053C10.9917 31.7081 15.5909 36.7119 22.0003 36.7119C28.4096 36.7119 33.0088 31.7081 33.0088 27.7053C33.0088 25.7033 31.6864 25.5725 31.0068 25.7033C28.0319 26.2814 25.6266 26.7043 22.0003 26.7043Z" fill="#664500"/>
<path d="M20.3498 4.01011C19.2999 1.03889 16.0427 -0.520668 13.0703 0.526777C11.2663 1.16233 9.98904 2.618 9.49159 4.32055C8.03593 3.30733 6.12926 2.97611 4.3277 3.61167C1.3577 4.66033 -0.204297 7.92 0.845592 10.8912C0.994704 11.3117 1.1927 11.7016 1.42248 12.0621C3.80704 16.4401 10.6967 19.5177 14.8681 19.5556C18.0912 16.907 21.5244 10.1872 20.6346 5.28367C20.5882 4.85833 20.4965 4.43055 20.3498 4.01011ZM23.6498 4.01011C24.6997 1.03889 27.9582 -0.520668 30.9294 0.526777C32.7334 1.16233 34.0106 2.618 34.5093 4.32055C35.9649 3.30733 37.8716 2.97611 39.6731 3.61167C42.6432 4.66033 44.2039 7.92 43.1565 10.8912C43.0062 11.3117 42.8094 11.7016 42.5784 12.0621C40.1938 16.4401 33.3041 19.5177 29.1315 19.5556C25.9085 16.907 22.4765 10.1872 23.3663 5.28367C23.4115 4.85833 23.5032 4.43055 23.6498 4.01011Z" fill="#DD2E44"/>
</svg>
