<svg width="44" height="44" viewBox="0 0 44 44" fill="none" xmlns="http://www.w3.org/2000/svg">
<g clip-path="url(#clip0)">
<path d="M43.5078 17.3947C46.0537 29.2747 38.4869 40.9701 26.6069 43.516C14.7269 46.0619 3.03145 38.4951 0.485564 26.6151C-2.06032 14.7351 5.50768 3.03965 17.3865 0.493763C29.2665 -2.05335 40.9619 5.51465 43.5078 17.3947Z" fill="#FFCB4C"/>
<path d="M35.7915 11.0147C36.7436 15.4587 33.9129 19.8342 29.4689 20.7863C25.0249 21.7384 20.6494 18.9078 19.696 14.4638C18.7439 10.0198 21.5746 5.64423 26.0186 4.69211C30.4626 3.74 34.8394 6.56945 35.7915 11.0147Z" fill="#F4F7F9"/>
<path d="M27.2629 13.8453C28.6379 13.8453 29.7525 12.7307 29.7525 11.3557C29.7525 9.98066 28.6379 8.866 27.2629 8.866C25.8879 8.866 24.7732 9.98066 24.7732 11.3557C24.7732 12.7307 25.8879 13.8453 27.2629 13.8453Z" fill="#292F33"/>
<path d="M17.2188 17.4558C17.7761 20.0542 16.12 22.6124 13.5215 23.1697C10.9231 23.727 8.36498 22.0709 7.80764 19.4725C7.25031 16.874 8.90642 14.3159 11.5049 13.7586C14.1033 13.2012 16.6614 14.8573 17.2188 17.4558Z" fill="#F4F7F9"/>
<path d="M13.0113 21.701C14.2931 21.4264 15.1095 20.1646 14.8349 18.8828C14.5602 17.6011 13.2984 16.7846 12.0167 17.0593C10.7349 17.334 9.91847 18.5957 10.1931 19.8775C10.4678 21.1593 11.7296 21.9757 13.0113 21.701Z" fill="#292F33"/>
<path d="M22.7638 25.5897C18.4334 26.5173 15.4536 26.6286 11.7515 26.6994C10.907 26.7178 9.36209 27.2116 9.87421 29.6022C10.8984 34.3823 17.6708 39.1808 25.3255 37.5406C32.9791 35.9003 37.1909 28.7479 36.1666 23.9678C35.6545 21.5771 34.0412 21.758 33.2639 22.0904C29.8588 23.5412 27.0941 24.662 22.7638 25.5897Z" fill="#65471B"/>
<path d="M13.4443 29.3382V36.6716C13.4443 40.3382 15.8888 44.0049 20.7777 44.0049C25.6666 44.0049 28.111 40.3382 28.111 36.6716V29.3382H13.4443Z" fill="#E8596E"/>
<path d="M20.7777 38.9681C21.1456 38.9681 21.4438 38.6699 21.4438 38.302V30.6081H20.1104V38.302C20.1116 38.6699 20.4098 38.9681 20.7777 38.9681Z" fill="#DD2F45"/>
<path d="M12.2639 29.0901C12.2639 29.0901 16.1054 29.5167 23.2761 27.9803C30.4469 26.444 33.7762 24.4799 33.7762 24.4799C33.7762 24.4799 32.411 29.7721 24.0449 31.5651C15.6788 33.3581 12.2639 29.0901 12.2639 29.0901Z" fill="white"/>
</g>
<defs>
<clipPath id="clip0">
<rect width="44" height="44" fill="white"/>
</clipPath>
</defs>
</svg>
