<svg width="44" height="44" viewBox="0 0 44 44" fill="none" xmlns="http://www.w3.org/2000/svg">
<path d="M22 44C34.1503 44 44 34.1503 44 22C44 9.84974 34.1503 0 22 0C9.84974 0 0 9.84974 0 22C0 34.1503 9.84974 44 22 44Z" fill="#FFCC4D"/>
<path d="M27.5 30.5556H22C15.1556 30.5556 13.4445 29.3333 13.4445 29.3333C13.4445 29.3333 14.993 33.726 20.9966 34.177C21.1237 34.2051 21.2545 34.2222 21.3889 34.2222H26.8889C27.8972 34.2222 29.3334 32.7861 29.3334 31.7778C29.3334 30.7694 28.5084 30.5556 27.5 30.5556ZM19.327 21.8631C19.1119 22.0379 18.8051 22.0428 18.5815 21.8802C18.5656 21.868 17.0402 20.7778 14.0556 20.7778C11.0721 20.7778 9.54558 21.8692 9.53336 21.8778C9.30969 22.0452 9.00169 22.0403 8.78658 21.8668C8.56902 21.6932 8.49569 21.395 8.60813 21.1408C8.68147 20.9758 10.4415 17.1111 14.0556 17.1111C17.6709 17.1111 19.4297 20.9758 19.503 21.1408C19.6155 21.3938 19.5421 21.6896 19.327 21.8631ZM35.2147 21.8631C34.9996 22.0379 34.694 22.044 34.4691 21.8802C34.4545 21.868 32.9279 20.7778 29.9445 20.7778C26.9622 20.7778 25.4345 21.8692 25.4222 21.8778C25.1986 22.0452 24.8918 22.0403 24.6755 21.8668C24.4579 21.6932 24.3846 21.395 24.497 21.1408C24.5691 20.9758 26.3304 17.1111 29.9445 17.1111C33.5598 17.1111 35.3198 20.9758 35.3919 21.1408C35.5044 21.3938 35.431 21.6896 35.2147 21.8631ZM16.0282 7.33578C16.7029 7.36145 17.2285 7.92978 17.2028 8.60445C17.1759 9.27667 16.6112 9.801 15.939 9.77778C15.7484 9.77289 11.5757 9.71422 8.19136 13.8808C7.76602 14.4027 6.99725 14.4846 6.47169 14.058C5.94736 13.6327 5.86791 12.8627 6.29447 12.3383C10.4842 7.18178 15.8034 7.32722 16.0282 7.33578ZM27.5208 9.37933C27.742 9.339 32.9878 8.44678 37.862 12.9641C38.3582 13.4224 38.3876 14.1961 37.9268 14.6911C37.4685 15.1886 36.696 15.2154 36.1998 14.7571C32.2545 11.1002 28.1234 11.7553 27.9498 11.7847C27.2874 11.8983 26.6542 11.4547 26.5381 10.7922C26.422 10.131 26.8596 9.50033 27.5208 9.37933Z" fill="#664500"/>
<path d="M28.1111 31.7778H24.4444C23.7722 31.7778 23.2222 32.3278 23.2222 33V37.8889C23.2222 38.5611 23.7722 39.1111 24.4444 39.1111C25.1166 39.1111 25.6666 38.5611 25.6666 37.8889V42.1667C25.6666 43.175 26.4916 44 27.4999 44C28.5083 44 29.3333 43.175 29.3333 42.1667V33C29.3333 32.3278 28.7833 31.7778 28.1111 31.7778Z" fill="#88C9F9"/>
</svg>
